<?xml version="1.0" encoding="UTF-8" standalone="no"?>
<svg width="12px" height="13px" viewBox="0 0 12 13" version="1.1" xmlns="http://www.w3.org/2000/svg" xmlns:xlink="http://www.w3.org/1999/xlink">
    <!-- Generator: Sketch 3.7.1 (28215) - http://www.bohemiancoding.com/sketch -->
    <title>icon-star</title>
    <desc>Created with Sketch.</desc>
    <defs></defs>
    <g id="Symbols" stroke="none" stroke-width="1" fill="none" fill-rule="evenodd">
        <g id="Layout-/-Sidebar" transform="translate(-26.000000, -258.000000)" fill="#808994">
            <g id="Group" transform="translate(0.000000, 216.066406)">
                <path d="M37.6524867,47.4976062 C37.7195122,47.4361662 37.7306831,47.3300424 37.7083413,47.2350896 C37.669243,47.1401367 37.5742902,47.0898676 37.4793374,47.0898676 L33.8264458,47.0898676 L32.2234184,42.9566263 C32.1843202,42.867259 32.0949528,42.8002334 32,42.8002334 C31.9050472,42.8002334 31.8156798,42.867259 31.7765816,42.9566263 L30.1735542,47.0898676 L26.5206626,47.0898676 C26.4257098,47.0898676 26.330757,47.1401367 26.2916587,47.2350896 C26.2693169,47.3300424 26.2804878,47.4361662 26.3475133,47.4976062 L29.129073,50.267995 L28.4253049,53.9599848 C28.414134,54.0549376 28.4532322,54.144305 28.5314286,54.2001596 C28.6096251,54.2504287 28.7157489,54.2504287 28.7939453,54.2001596 L32,52.133539 L35.2060547,54.2001596 C35.2451529,54.2280869 35.2954221,54.2392578 35.3345203,54.2392578 C35.3736185,54.2392578 35.4294731,54.2280869 35.4685714,54.2001596 C35.5467678,54.144305 35.585866,54.0549376 35.5746951,53.9599848 L34.870927,50.267995 L37.6524867,47.4976062 Z" id="icon-star"></path>
            </g>
        </g>
    </g>
</svg>